<svg id="Isolation_Mode" data-name="Isolation Mode" xmlns="http://www.w3.org/2000/svg" viewBox="0 0 122.37 39.18"><defs><style>.cls-1{fill:#fff;}.cls-2{fill:#00438c;}.cls-3{fill:#da1a32;}</style></defs><path class="cls-1" d="M13.23,0H4.06A4.06,4.06,0,0,0,0,4.06V35.12a4.06,4.06,0,0,0,4.06,4.06h9.16a4.07,4.07,0,0,0,4.07-4.06V4.06A4.06,4.06,0,0,0,13.23,0"/><path class="cls-2" d="M12.84,34.53c-.5-.45-.17-.64-.19-.81-.33-1.36-1.41-2.18-.85-2.63-.14-.45-.42-1-.41-1A16.58,16.58,0,0,1,8,27.32c-.29-.32-.8-.64-.89-.9a26.78,26.78,0,0,1-2.84-4.21l-.81-.12c-.36-1.49-1.58-2.74-1.61-4.24a8,8,0,0,1,.35-2,2.66,2.66,0,0,1,.57-.65v-.4c-1.76.05-1.25-.13-1.55-.81-.22-.47-.06-.58,0-.9A20.71,20.71,0,0,1,2.61,9.93c.1-.34.44-1.16.44-1.16C4.36,6.11,4.84,6.3,6.4,6.15L6.47,6C8,6,7.77,5.86,8,4.36c-.23.1-.29-.47-.29-.47-.13-.85.23-.69.4-.7,0-1.41.18-1.85,1.19-2.23H4.06A3.1,3.1,0,0,0,1,4.06V35.12a3.1,3.1,0,0,0,3.1,3.1h9.17c-1.05-.56-.43-1.64-.39-3.69"/><path class="cls-3" d="M11,7.18v.14c.28.16.43.29.71.47.75.47,1.67,1.31,1.55,4.19.21.63.3,1.87.5,2.27a6.2,6.2,0,0,1,.76,2s.11,1.14.26,1.22c.77.17.55.25.66.38s.57.15.57.57a2.91,2.91,0,0,1,.36.64v-15A3.09,3.09,0,0,0,13.23,1h-3a1.39,1.39,0,0,1,.9.68c.38,0,.84.89.13,2.16.31.21.07.52-.16.88-.07.12-.14.33-.35.31-.27.57-.59,1.12-.84,1.15-.07.09-.13.34,0,.45a4.14,4.14,0,0,1,1,.59"/><path class="cls-3" d="M16.33,21.1a2.77,2.77,0,1,1-3.23-3.71c-.32-.8-1-2.09-1.19-2.52s-.64-3-.74-3.57c0-.11-1.19.68-1.2.73s-.88,2.18-.91,2.3a2.51,2.51,0,0,0,0,.35s.4.05.63.74.92,3.23.92,3.23a1.71,1.71,0,0,1-.2.18c.88,2.93.57,4.18,1,5,.49,1.21.63,1.05,1.05,2.07.3.74.64,3.65.75,3.77a2.68,2.68,0,0,1,.73,1.41c0,.34-.4,1.34-.25,1.92.08.34.13,1.11.29,1.26,0,0,.15.29.07.42s-.06.11,0,.16c.26.92,1.1,2.49-.26,3.31h0a3.09,3.09,0,0,0,2.61-3.07Z"/><path class="cls-1" d="M26.38,38.27H22V1h6.79l4.53,30.72c-.67-7.3-1.56-19.09-1.56-25.29V1h4.38V38.27H29.92L25.75,8.44c.37,6.68.63,14.66.63,19.14Z"/><path class="cls-1" d="M43.64,22.11V33.58h.84c1.56,0,2-.89,2-2.66V24.61c0-1.83-.57-2.5-2.24-2.5Zm0-16.38V18h.63c1.77,0,2.24-.68,2.24-2.72V8.23c0-1.72-.52-2.5-2-2.5Zm-5,32.54V1h6.21C49,1,51.52,3.28,51.52,8.49V14c0,3.39-1.05,5.11-2.51,6,1.46.94,2.51,2.6,2.51,5.47v5.43c0,5.11-2.72,7.4-6.68,7.4Z"/><path class="cls-1" d="M58,27.06h2.66l-.42-6.83c-.15-2.72-.57-11.32-.89-16h-.2l-.73,16Zm2.92,4.22H57.77l-.42,7H52.29L55.94,1H63l3.55,37.24H61.32Z"/><path class="cls-1" d="M82.47,31.7c0,5.06-1.78,6.89-4.86,6.89-3.34,0-5-1.83-5-6.89V26.06h2.67v6.21c0,2.67.47,3.76,2.29,3.76,1.57,0,2.2-1.09,2.2-3.76V30.13c0-2.87-.27-4.59-3.35-8.87-2.45-3.44-3.81-5.53-3.81-10.33V7.59c0-5.07,1.88-6.89,5-6.89,3.29,0,4.86,1.82,4.86,6.89v5.58H79.81V7c0-2.66-.37-3.76-2.2-3.76-1.56,0-2.29,1.1-2.29,3.76V10.4c0,3.87.68,5.22,3,8.56,3.34,4.7,4.13,6.16,4.13,10.5Z"/><path class="cls-1" d="M90.08,38.38c-2.61,0-4-.94-4-4.17V11.34H84.49V9.05h1.62V3.67L88.62,3v6H91v2.29h-2.4V34.1c0,1.41.57,1.93,1.88,1.93h.73v2.25a8.21,8.21,0,0,1-1.15.1"/><path class="cls-1" d="M102.5,32.43c0,4.85-1.83,6.16-4.7,6.16s-4.69-1.31-4.69-6.16V15c0-4.8,1.82-6.27,4.69-6.27s4.7,1.31,4.7,6.16ZM95.61,14.27V33.06c0,2.08.42,3.29,2.19,3.29s2.2-1.21,2.2-3.29V14.27c0-2.09-.42-3.29-2.2-3.29s-2.19,1.2-2.19,3.29"/><path class="cls-1" d="M107.92,38.28h-2.51V9.05h1.67a6.14,6.14,0,0,1,.68,2c.58-1.57,2.3-2.3,4.18-2.3h0v2.56h-.21c-2,0-3.86.78-3.86,2.35Z"/><path class="cls-1" d="M117.67,38.59c-2.87,0-4.7-1.31-4.7-6.16V15c0-4.81,1.83-6.27,4.7-6.27s4.7,1.31,4.7,6.16V25.33h-6.89v7.73c0,2.08.41,3.29,2.19,3.29s2.19-1.21,2.19-3.29V29.19h2.51v3.24c0,4.85-1.83,6.16-4.7,6.16m-2.19-15.45h4.38V14.27c0-2.09-.42-3.29-2.19-3.29s-2.19,1.2-2.19,3.29Z"/></svg>